<?xml version="1.0" encoding="UTF-8"?>
<svg xmlns="http://www.w3.org/2000/svg" xmlns:xlink="http://www.w3.org/1999/xlink" width="1440pt" height="809.999993pt" viewBox="0 0 1440 809.999993" version="1.2">
<defs>
<clipPath id="clip1">
  <path d="M 1360 226 L 1380.683594 226 L 1380.683594 245 L 1360 245 Z M 1360 226 "/>
</clipPath>
</defs>
<g id="surface1">
<rect x="0" y="0" width="1440" height="809.999993" style="fill:rgb(100%,100%,100%);fill-opacity:1;stroke:none;"/>
<rect x="0" y="0" width="1440" height="809.999993" style="fill:rgb(100%,100%,100%);fill-opacity:1;stroke:none;"/>
<rect x="0" y="0" width="1440" height="809.999993" style="fill:rgb(100%,100%,100%);fill-opacity:1;stroke:none;"/>
<path style=" stroke:none;fill-rule:nonzero;fill:rgb(10.5896%,9.799194%,9.408569%);fill-opacity:1;" d="M 295.53125 175.898438 C 281.523438 175.898438 268.339844 181.59375 258.519531 192.101562 C 246.960938 204.484375 242.390625 221.082031 245.957031 237.644531 L 339.25 670.214844 C 344.695312 695.472656 368.1875 712.679688 393.898438 710.222656 L 1178.960938 635.589844 C 1201.011719 633.488281 1219.058594 617.546875 1223.882812 595.925781 L 1273.695312 372.464844 C 1276.8125 358.46875 1274.050781 344.246094 1265.914062 332.429688 C 1257.761719 320.601562 1245.457031 312.976562 1231.253906 310.914062 L 303.089844 176.4375 C 300.550781 176.070312 298.027344 175.898438 295.53125 175.898438 Z M 389.035156 718.917969 C 361.34375 718.917969 336.9375 699.570312 330.992188 672 L 237.699219 239.429688 C 233.523438 220.117188 238.859375 200.769531 252.339844 186.335938 C 265.828125 171.890625 284.75 165.246094 304.304688 168.058594 L 1232.457031 302.535156 C 1248.773438 304.902344 1263.507812 314.046875 1272.863281 327.621094 C 1282.230469 341.195312 1285.53125 358.214844 1281.953125 374.3125 L 1232.140625 597.761719 C 1226.511719 622.980469 1205.464844 641.5625 1179.753906 644.007812 L 394.703125 718.640625 C 392.800781 718.824219 390.914062 718.917969 389.035156 718.917969 "/>
<path style=" stroke:none;fill-rule:nonzero;fill:rgb(26.269531%,66.668701%,70.588684%);fill-opacity:1;" d="M 282.171875 642.84375 L 1055.144531 754.046875 C 1090.84375 759.175781 1124.589844 736.308594 1133.058594 701.234375 L 1245.234375 236.347656 C 1256.609375 189.21875 1217.738281 145.089844 1169.566406 150.441406 L 227.828125 254.890625 C 186.355469 259.492188 158.117188 299.179688 167.355469 339.886719 L 223.945312 589.121094 C 230.363281 617.363281 253.515625 638.71875 282.171875 642.84375 "/>
<path style=" stroke:none;fill-rule:nonzero;fill:rgb(10.5896%,9.799194%,9.408569%);fill-opacity:1;" d="M 389.035156 718.917969 C 361.34375 718.917969 336.9375 699.570312 330.992188 672 L 237.699219 239.429688 C 233.523438 220.117188 238.859375 200.769531 252.339844 186.335938 C 265.816406 171.890625 284.75 165.246094 304.304688 168.058594 C 306.617188 168.402344 308.214844 170.542969 307.882812 172.855469 C 307.539062 175.167969 305.386719 176.757812 303.089844 176.4375 C 286.320312 174.007812 270.082031 179.714844 258.519531 192.101562 C 246.960938 204.484375 242.390625 221.082031 245.957031 237.644531 L 339.25 670.214844 C 344.695312 695.472656 368.1875 712.679688 393.898438 710.222656 L 1178.960938 635.589844 C 1201.011719 633.488281 1219.058594 617.546875 1223.882812 595.925781 C 1224.382812 593.652344 1226.644531 592.210938 1228.929688 592.714844 C 1231.203125 593.230469 1232.640625 595.488281 1232.140625 597.761719 C 1226.511719 622.980469 1205.464844 641.5625 1179.753906 644.007812 L 394.703125 718.640625 C 392.800781 718.824219 390.914062 718.917969 389.035156 718.917969 "/>
<path style=" stroke:none;fill-rule:nonzero;fill:rgb(10.5896%,9.799194%,9.408569%);fill-opacity:1;" d="M 1337.816406 246.921875 L 1335.382812 244.808594 L 1351.054688 226.820312 L 1353.472656 228.949219 L 1337.816406 246.921875 "/>
<path style=" stroke:none;fill-rule:nonzero;fill:rgb(10.5896%,9.799194%,9.408569%);fill-opacity:1;" d="M 1350.566406 219.695312 L 1332.582031 204.035156 L 1334.710938 201.601562 L 1352.679688 217.265625 L 1350.566406 219.695312 "/>
<g clip-path="url(#clip1)" clip-rule="nonzero">
<path style=" stroke:none;fill-rule:nonzero;fill:rgb(10.5896%,9.799194%,9.408569%);fill-opacity:1;" d="M 1378.578125 244.121094 L 1360.609375 228.445312 L 1362.722656 226.027344 L 1380.691406 241.6875 L 1378.578125 244.121094 "/>
</g>
<path style=" stroke:none;fill-rule:nonzero;fill:rgb(10.5896%,9.799194%,9.408569%);fill-opacity:1;" d="M 1362.234375 218.890625 L 1359.800781 216.773438 L 1375.457031 198.800781 L 1377.890625 200.914062 L 1362.234375 218.890625 "/>
<path style=" stroke:none;fill-rule:nonzero;fill:rgb(10.5896%,9.799194%,9.408569%);fill-opacity:1;" d="M 762.070312 823.644531 L 759.640625 821.53125 L 775.3125 803.554688 L 777.742188 805.667969 L 762.070312 823.644531 "/>
<path style=" stroke:none;fill-rule:nonzero;fill:rgb(10.5896%,9.799194%,9.408569%);fill-opacity:1;" d="M 774.820312 796.429688 L 756.839844 780.757812 L 758.964844 778.339844 L 776.9375 794 L 774.820312 796.429688 "/>
<path style=" stroke:none;fill-rule:nonzero;fill:rgb(10.5896%,9.799194%,9.408569%);fill-opacity:1;" d="M 802.832031 820.84375 L 784.863281 805.179688 L 786.976562 802.75 L 804.945312 818.410156 L 802.832031 820.84375 "/>
<path style=" stroke:none;fill-rule:nonzero;fill:rgb(10.5896%,9.799194%,9.408569%);fill-opacity:1;" d="M 786.488281 795.625 L 784.058594 793.511719 L 799.714844 775.535156 L 802.144531 777.652344 L 786.488281 795.625 "/>
<path style=" stroke:none;fill-rule:nonzero;fill:rgb(10.5896%,9.799194%,9.408569%);fill-opacity:1;" d="M 600.941406 154.976562 L 598.511719 152.859375 L 614.167969 134.886719 L 616.597656 137 L 600.941406 154.976562 "/>
<path style=" stroke:none;fill-rule:nonzero;fill:rgb(10.5896%,9.799194%,9.408569%);fill-opacity:1;" d="M 613.691406 127.761719 L 595.710938 112.089844 L 597.824219 109.667969 L 615.808594 125.332031 L 613.691406 127.761719 "/>
<path style=" stroke:none;fill-rule:nonzero;fill:rgb(10.5896%,9.799194%,9.408569%);fill-opacity:1;" d="M 641.703125 152.171875 L 623.734375 136.511719 L 625.847656 134.082031 L 643.816406 149.742188 L 641.703125 152.171875 "/>
<path style=" stroke:none;fill-rule:nonzero;fill:rgb(10.5896%,9.799194%,9.408569%);fill-opacity:1;" d="M 625.359375 126.957031 L 622.929688 124.84375 L 638.585938 106.855469 L 641.015625 108.96875 L 625.359375 126.957031 "/>
<path style=" stroke:none;fill-rule:nonzero;fill:rgb(10.5896%,9.799194%,9.408569%);fill-opacity:1;" d="M 206.25 739.90625 L 203.820312 737.777344 L 219.476562 719.804688 L 221.910156 721.917969 L 206.25 739.90625 "/>
<path style=" stroke:none;fill-rule:nonzero;fill:rgb(10.5896%,9.799194%,9.408569%);fill-opacity:1;" d="M 218.988281 712.679688 L 201.019531 697.019531 L 203.132812 694.585938 L 221.101562 710.246094 L 218.988281 712.679688 "/>
<path style=" stroke:none;fill-rule:nonzero;fill:rgb(10.5896%,9.799194%,9.408569%);fill-opacity:1;" d="M 247.011719 737.089844 L 229.03125 721.429688 L 231.144531 718.996094 L 249.128906 734.671875 L 247.011719 737.089844 "/>
<path style=" stroke:none;fill-rule:nonzero;fill:rgb(10.5896%,9.799194%,9.408569%);fill-opacity:1;" d="M 230.65625 711.875 L 228.226562 709.757812 L 243.894531 691.785156 L 246.324219 693.898438 L 230.65625 711.875 "/>
<path style=" stroke:none;fill-rule:nonzero;fill:rgb(26.269531%,66.668701%,70.588684%);fill-opacity:1;" d="M 146.253906 184.871094 C 153.730469 180.207031 163.5625 182.492188 168.226562 189.960938 C 172.890625 197.425781 170.605469 207.273438 163.140625 211.9375 C 155.660156 216.601562 145.832031 214.316406 141.167969 206.847656 C 136.503906 199.367188 138.789062 189.535156 146.253906 184.871094 "/>
<path style=" stroke:none;fill-rule:nonzero;fill:rgb(10.5896%,9.799194%,9.408569%);fill-opacity:1;" d="M 157.917969 174.589844 C 155.117188 174.589844 152.355469 175.367188 149.925781 176.902344 C 146.476562 179.042969 144.085938 182.398438 143.175781 186.351562 C 142.261719 190.300781 142.9375 194.359375 145.078125 197.796875 C 147.230469 201.246094 150.585938 203.636719 154.523438 204.550781 C 158.476562 205.460938 162.542969 204.800781 165.980469 202.648438 C 173.089844 198.21875 175.253906 188.835938 170.828125 181.738281 C 168.675781 178.300781 165.320312 175.898438 161.382812 174.984375 C 160.230469 174.71875 159.070312 174.589844 157.917969 174.589844 Z M 157.984375 208.34375 C 156.585938 208.34375 155.171875 208.183594 153.769531 207.855469 C 148.933594 206.730469 144.839844 203.796875 142.210938 199.59375 C 139.59375 195.390625 138.761719 190.410156 139.871094 185.585938 C 140.996094 180.746094 143.925781 176.648438 148.128906 174.019531 C 152.332031 171.402344 157.296875 170.570312 162.132812 171.695312 C 166.96875 172.804688 171.066406 175.738281 173.695312 179.941406 C 179.113281 188.636719 176.457031 200.097656 167.777344 205.515625 C 164.789062 207.378906 161.421875 208.34375 157.984375 208.34375 "/>
<path style=" stroke:none;fill-rule:nonzero;fill:rgb(26.269531%,66.668701%,70.588684%);fill-opacity:1;" d="M 73.503906 107.648438 C 84.800781 100.601562 99.664062 104.050781 106.707031 115.339844 C 113.761719 126.640625 110.3125 141.519531 99.015625 148.566406 C 87.734375 155.609375 72.855469 152.171875 65.8125 140.875 C 58.773438 129.574219 62.207031 114.703125 73.503906 107.648438 "/>
<path style=" stroke:none;fill-rule:nonzero;fill:rgb(10.5896%,9.799194%,9.408569%);fill-opacity:1;" d="M 89.148438 95.4375 C 85 95.4375 80.929688 96.585938 77.335938 98.832031 C 72.25 102.003906 68.707031 106.972656 67.359375 112.800781 C 66 118.628906 67.003906 124.644531 70.175781 129.730469 C 73.34375 134.808594 78.300781 138.347656 84.140625 139.710938 C 89.964844 141.046875 95.980469 140.054688 101.050781 136.882812 C 106.140625 133.710938 109.679688 128.753906 111.027344 122.925781 C 112.375 117.082031 111.382812 111.070312 108.214844 105.996094 C 105.042969 100.90625 100.085938 97.363281 94.246094 96.015625 C 92.554688 95.632812 90.851562 95.4375 89.148438 95.4375 Z M 89.238281 143.675781 C 87.285156 143.675781 85.328125 143.449219 83.375 143 C 76.660156 141.441406 70.953125 137.371094 67.308594 131.515625 C 63.660156 125.675781 62.511719 118.75 64.058594 112.035156 C 65.617188 105.320312 69.699219 99.613281 75.539062 95.976562 C 81.378906 92.328125 88.300781 91.167969 95.015625 92.726562 C 101.726562 94.273438 107.433594 98.355469 111.082031 104.199219 C 114.726562 110.054688 115.875 116.964844 114.316406 123.679688 C 112.773438 130.394531 108.6875 136.101562 102.847656 139.75 C 98.699219 142.339844 94.011719 143.675781 89.238281 143.675781 "/>
<path style=" stroke:none;fill-rule:nonzero;fill:rgb(26.269531%,66.668701%,70.588684%);fill-opacity:1;" d="M 765.664062 76.523438 C 773.488281 79.21875 777.648438 87.742188 774.941406 95.582031 C 772.246094 103.390625 763.710938 107.554688 755.902344 104.859375 C 748.066406 102.148438 743.917969 93.625 746.613281 85.800781 C 749.320312 77.976562 757.84375 73.8125 765.664062 76.523438 "/>
<path style=" stroke:none;fill-rule:nonzero;fill:rgb(10.5896%,9.799194%,9.408569%);fill-opacity:1;" d="M 768.996094 73.800781 C 766.882812 73.800781 764.78125 74.277344 762.8125 75.226562 C 759.414062 76.878906 756.867188 79.773438 755.636719 83.34375 C 754.394531 86.910156 754.632812 90.757812 756.285156 94.152344 C 757.9375 97.550781 760.816406 100.113281 764.398438 101.34375 C 771.769531 103.894531 779.84375 99.957031 782.394531 92.582031 C 784.941406 85.207031 781.003906 77.117188 773.632812 74.582031 C 772.113281 74.066406 770.554688 73.800781 768.996094 73.800781 Z M 768.996094 105.507812 C 767.105469 105.507812 765.175781 105.1875 763.285156 104.542969 C 758.859375 103.023438 755.292969 99.851562 753.246094 95.632812 C 751.199219 91.429688 750.90625 86.671875 752.4375 82.246094 C 753.957031 77.816406 757.128906 74.238281 761.332031 72.1875 C 765.546875 70.140625 770.304688 69.847656 774.730469 71.382812 C 783.871094 74.539062 788.746094 84.546875 785.589844 93.679688 C 783.078125 100.933594 776.261719 105.507812 768.996094 105.507812 "/>
<path style=" stroke:none;fill-rule:nonzero;fill:rgb(26.269531%,66.668701%,70.588684%);fill-opacity:1;" d="M 779.023438 -22.28125 C 790.847656 -18.199219 797.125 -5.300781 793.042969 6.527344 C 788.960938 18.359375 776.0625 24.636719 764.238281 20.550781 C 752.425781 16.46875 746.148438 3.582031 750.21875 -8.246094 C 754.300781 -20.074219 767.199219 -26.351562 779.023438 -22.28125 "/>
<path style=" stroke:none;fill-rule:nonzero;fill:rgb(10.5896%,9.799194%,9.408569%);fill-opacity:1;" d="M 780.859375 -25.746094 C 772.164062 -25.746094 764.027344 -20.285156 761.039062 -11.617188 C 757.273438 -0.699219 763.089844 11.261719 774.015625 15.039062 C 784.941406 18.808594 796.886719 12.980469 800.664062 2.0625 C 804.429688 -8.867188 798.605469 -20.828125 787.675781 -24.59375 C 785.429688 -25.375 783.132812 -25.746094 780.859375 -25.746094 Z M 780.820312 19.574219 C 778.191406 19.574219 775.523438 19.136719 772.90625 18.238281 C 760.222656 13.851562 753.46875 -0.0273438 757.84375 -12.714844 C 762.21875 -25.402344 776.089844 -32.179688 788.789062 -27.792969 C 801.472656 -23.417969 808.238281 -9.527344 803.851562 3.160156 C 800.386719 13.230469 790.914062 19.574219 780.820312 19.574219 "/>
<path style=" stroke:none;fill-rule:nonzero;fill:rgb(26.269531%,66.668701%,70.588684%);fill-opacity:1;" d="M 1228.585938 679.808594 C 1225.269531 687.316406 1216.496094 690.714844 1208.992188 687.398438 C 1201.488281 684.066406 1198.089844 675.289062 1201.40625 667.785156 C 1204.738281 660.277344 1213.511719 656.878906 1221.015625 660.210938 C 1228.519531 663.527344 1231.902344 672.304688 1228.585938 679.808594 "/>
<path style=" stroke:none;fill-rule:nonzero;fill:rgb(10.5896%,9.799194%,9.408569%);fill-opacity:1;" d="M 1217.011719 668.128906 C 1215.308594 668.128906 1213.589844 668.445312 1211.953125 669.078125 C 1208.449219 670.425781 1205.703125 673.058594 1204.183594 676.480469 C 1202.664062 679.917969 1202.570312 683.722656 1203.929688 687.226562 C 1205.277344 690.714844 1207.910156 693.476562 1211.332031 694.996094 C 1214.765625 696.503906 1218.570312 696.59375 1222.058594 695.246094 C 1225.558594 693.898438 1228.320312 691.253906 1229.828125 687.832031 C 1232.960938 680.761719 1229.75 672.460938 1222.679688 669.328125 C 1220.855469 668.523438 1218.941406 668.128906 1217.011719 668.128906 Z M 1217 699.582031 C 1214.605469 699.582031 1212.214844 699.078125 1209.96875 698.089844 C 1205.714844 696.199219 1202.453125 692.777344 1200.773438 688.441406 C 1199.09375 684.09375 1199.199219 679.375 1201.089844 675.117188 C 1202.964844 670.863281 1206.390625 667.597656 1210.722656 665.917969 C 1215.070312 664.242188 1219.800781 664.359375 1224.054688 666.238281 C 1232.828125 670.121094 1236.804688 680.429688 1232.921875 689.207031 C 1231.042969 693.460938 1227.621094 696.726562 1223.273438 698.40625 C 1221.253906 699.183594 1219.125 699.582031 1217 699.582031 "/>
<path style=" stroke:none;fill-rule:nonzero;fill:rgb(26.269531%,66.668701%,70.588684%);fill-opacity:1;" d="M 1325.09375 701.246094 C 1320.070312 712.601562 1306.804688 717.726562 1295.457031 712.707031 C 1284.121094 707.695312 1278.980469 694.425781 1284 683.074219 C 1289.019531 671.722656 1302.300781 666.59375 1313.636719 671.617188 C 1324.984375 676.636719 1330.113281 689.90625 1325.09375 701.246094 "/>
<path style=" stroke:none;fill-rule:nonzero;fill:rgb(10.5896%,9.799194%,9.408569%);fill-opacity:1;" d="M 1307.664062 680.816406 C 1305.128906 680.816406 1302.589844 681.277344 1300.160156 682.214844 C 1294.992188 684.222656 1290.898438 688.125 1288.652344 693.199219 C 1284.027344 703.664062 1288.769531 715.96875 1299.246094 720.597656 C 1309.726562 725.222656 1322.011719 720.476562 1326.652344 710.007812 C 1328.898438 704.933594 1329.03125 699.277344 1327.019531 694.109375 C 1325.027344 688.929688 1321.128906 684.847656 1316.054688 682.597656 C 1313.359375 681.410156 1310.519531 680.816406 1307.664062 680.816406 Z M 1307.613281 725.761719 C 1304.347656 725.761719 1301.042969 725.089844 1297.886719 723.6875 C 1285.703125 718.308594 1280.183594 704.007812 1285.558594 691.824219 C 1288.175781 685.917969 1292.917969 681.382812 1298.945312 679.070312 C 1304.957031 676.730469 1311.523438 676.890625 1317.414062 679.507812 C 1323.320312 682.109375 1327.851562 686.867188 1330.179688 692.894531 C 1332.503906 698.90625 1332.347656 705.476562 1329.742188 711.371094 C 1325.753906 720.382812 1316.886719 725.761719 1307.613281 725.761719 "/>
<path style=" stroke:none;fill-rule:nonzero;fill:rgb(26.269531%,66.668701%,70.588684%);fill-opacity:1;" d="M 1244.496094 -33.265625 L 1211.847656 -55.839844 C 1206.453125 -59.566406 1199.003906 -56.527344 1197.746094 -50.078125 L 1188.75 -3.699219 C 1187.269531 3.9375 1195.433594 9.792969 1202.199219 5.933594 L 1243.832031 -17.882812 C 1249.648438 -21.210938 1250.003906 -29.460938 1244.496094 -33.265625 "/>
<path style=" stroke:none;fill-rule:nonzero;fill:rgb(10.5896%,9.799194%,9.408569%);fill-opacity:1;" d="M 1220.117188 -57.847656 C 1219.179688 -57.847656 1218.226562 -57.664062 1217.328125 -57.292969 C 1214.992188 -56.339844 1213.324219 -54.304688 1212.851562 -51.847656 L 1203.085938 -1.492188 C 1202.515625 1.386719 1203.652344 4.230469 1206.046875 5.933594 C 1208.421875 7.640625 1211.476562 7.796875 1214.027344 6.34375 L 1259.226562 -19.507812 C 1261.460938 -20.777344 1262.847656 -23.0625 1262.964844 -25.625 C 1263.070312 -28.175781 1261.867188 -30.570312 1259.769531 -32.035156 L 1224.332031 -56.527344 C 1223.0625 -57.398438 1221.597656 -57.847656 1220.117188 -57.847656 Z M 1210.339844 10.71875 C 1208.144531 10.71875 1205.953125 10.042969 1204.078125 8.683594 C 1200.601562 6.199219 1198.949219 2.046875 1199.757812 -2.140625 L 1209.535156 -52.480469 C 1210.21875 -56.078125 1212.664062 -59.039062 1216.046875 -60.425781 C 1219.429688 -61.8125 1223.25 -61.390625 1226.246094 -59.300781 L 1261.699219 -34.8125 C 1264.761719 -32.695312 1266.492188 -29.207031 1266.335938 -25.480469 C 1266.175781 -21.753906 1264.15625 -18.421875 1260.90625 -16.574219 L 1215.703125 9.277344 C 1214.011719 10.242188 1212.175781 10.71875 1210.339844 10.71875 "/>
<path style=" stroke:none;fill-rule:nonzero;fill:rgb(26.269531%,66.668701%,70.588684%);fill-opacity:1;" d="M 472.59375 44.605469 L 436.894531 69.042969 C 430.523438 73.390625 430.722656 82.867188 437.277344 86.949219 L 480.945312 114.203125 C 488.714844 119.039062 498.570312 112.539062 497.183594 103.484375 L 489.203125 51.808594 C 488 44.023438 479.09375 40.164062 472.59375 44.605469 "/>
<path style=" stroke:none;fill-rule:nonzero;fill:rgb(10.5896%,9.799194%,9.408569%);fill-opacity:1;" d="M 479.925781 28.878906 L 441.082031 55.457031 C 438.558594 57.1875 437.089844 60.042969 437.15625 63.082031 C 437.222656 66.136719 438.808594 68.921875 441.398438 70.535156 L 488.925781 100.207031 C 491.949219 102.082031 495.675781 102.042969 498.664062 100.085938 C 501.636719 98.117188 503.140625 94.707031 502.601562 91.191406 L 493.90625 34.929688 C 493.445312 31.863281 491.449219 29.289062 488.59375 28.046875 C 485.726562 26.804688 482.492188 27.121094 479.925781 28.878906 Z M 493.695312 104.976562 C 491.433594 104.976562 489.175781 104.34375 487.140625 103.074219 L 439.601562 73.417969 C 436.046875 71.195312 433.867188 67.363281 433.773438 63.160156 C 433.695312 58.957031 435.703125 55.03125 439.164062 52.667969 L 478.011719 26.074219 C 481.550781 23.65625 486.003906 23.234375 489.941406 24.941406 C 493.867188 26.644531 496.601562 30.1875 497.25 34.414062 L 505.941406 90.664062 C 506.683594 95.515625 504.609375 100.207031 500.511719 102.902344 C 498.425781 104.289062 496.058594 104.976562 493.695312 104.976562 "/>
</g>
</svg>
